<svg width="16" height="17" viewBox="0 0 16 17" fill="none" xmlns="http://www.w3.org/2000/svg">
<path d="M6.14038 9.20708L1.6069 6.82365C1.25758 6.64408 0.853909 6.6604 0.527871 6.87263C0.19407 7.09301 0 7.46032 0 7.86844V12.3659C0 13.1414 0.411429 13.8433 1.07127 14.1943L5.59699 16.5778C5.75224 16.6594 5.92303 16.7002 6.09381 16.7002C6.29564 16.7002 6.49747 16.6431 6.67602 16.5288C7.00982 16.3166 7.20389 15.9411 7.20389 15.533V11.0355C7.21165 10.2519 6.80022 9.5499 6.14038 9.20708Z" fill="#5754F2"/>
<path d="M15.181 6.87587C14.8472 6.66372 14.4435 6.63924 14.102 6.82691L9.57617 9.20956C8.91632 9.56043 8.50488 10.254 8.50488 11.0373V15.5334C8.50488 15.9413 8.69896 16.3167 9.03276 16.5288C9.21131 16.6431 9.41314 16.7002 9.61498 16.7002C9.78577 16.7002 9.95655 16.6594 10.1118 16.5778L14.6376 14.1952C15.2974 13.8443 15.7089 13.1507 15.7089 12.3674V7.87136C15.7089 7.46337 15.5148 7.09618 15.181 6.87587Z" fill="#5754F2"/>
<path d="M13.7116 2.96146L8.65864 0.219067C8.12675 -0.0730223 7.48203 -0.0730223 6.95014 0.219067L1.89715 2.96146C1.52643 3.1643 1.30078 3.55375 1.30078 4C1.30078 4.43813 1.52643 4.8357 1.89715 5.03854L6.95014 7.78093C7.21608 7.92698 7.51427 8 7.80439 8C8.09451 8 8.3927 7.92698 8.65864 7.78093L13.7116 5.03854C14.0823 4.8357 14.308 4.44625 14.308 4C14.308 3.55375 14.0823 3.1643 13.7116 2.96146Z" fill="#8B8CF4"/>
</svg>
