<svg width="36" height="36" viewBox="0 0 36 36" fill="none" xmlns="http://www.w3.org/2000/svg">
<path d="M17.9843 0C8.04609 0 0 8.01009 0 17.9038C0 19.2547 0.152895 20.5485 0.420461 21.8042C2.19786 23.821 3.72681 24.3728 4.91175 24.2967C3.97527 22.375 3.44014 20.187 3.44014 17.9038C3.44014 9.8937 9.95728 3.42474 17.9843 3.42474C26.0304 3.42474 32.5284 9.91273 32.5284 17.9038C32.5284 25.9139 26.0112 32.3829 17.9843 32.3829C14.3912 32.3829 11.0849 31.0891 8.543 28.9201C6.42159 29.2435 4.89264 28.7678 3.42102 28.4254C6.68915 32.8966 12.0023 35.8076 17.9843 35.8076C27.9224 35.8076 35.9685 27.7975 35.9685 17.9038C35.9685 8.01009 27.9224 0 17.9843 0Z" fill="url(#paint0_linear_40_43)"/>
<path d="M0.42041 21.7852C0.42041 21.7852 1.28044 27.5501 6.05841 27.7404C6.05841 27.7404 11.1039 28.3493 15.9775 23.1931L23.1826 16.2295V18.7029C23.1826 18.7029 23.2017 27.7975 12.824 29.0723C12.824 29.0723 20.3159 30.7275 24.4058 24.8674C24.4058 24.8674 26.2979 22.2418 26.2979 19.1595V8.99945H19.9145C15.8055 8.99945 11.9449 11.1114 9.86167 14.6503C9.00164 16.0963 8.25627 17.9228 7.75937 20.225C7.75937 20.225 9.34565 18.5697 11.3524 16.8003C14.1618 14.3268 17.8122 12.976 21.5581 12.976L12.2124 21.671C11.2568 22.5652 10.1292 23.2882 8.90608 23.7639C6.66999 24.6201 3.38275 24.9816 0.42041 21.7852Z" fill="url(#paint1_linear_40_43)"/>
<defs>
<linearGradient id="paint0_linear_40_43" x1="0.539489" y1="1.31297" x2="34.8411" y2="34.2374" gradientUnits="userSpaceOnUse">
<stop stop-color="#8B8CF4"/>
<stop offset="0.1075" stop-color="#7878F3"/>
<stop offset="0.2625" stop-color="#6361F2"/>
<stop offset="0.3604" stop-color="#5B59F2"/>
<stop offset="1" stop-color="#5754F2"/>
</linearGradient>
<linearGradient id="paint1_linear_40_43" x1="0.420028" y1="19.1247" x2="26.2873" y2="19.1247" gradientUnits="userSpaceOnUse">
<stop stop-color="#8B8CF4"/>
<stop offset="0.1075" stop-color="#7878F3"/>
<stop offset="0.2625" stop-color="#6361F2"/>
<stop offset="0.3604" stop-color="#5B59F2"/>
<stop offset="1" stop-color="#5754F2"/>
</linearGradient>
</defs>
</svg>
