<svg width="67" height="73" viewBox="0 0 67 73" fill="none" xmlns="http://www.w3.org/2000/svg">
<path fill-rule="evenodd" clip-rule="evenodd" d="M41.9292 54.1144C47.98 52.1282 54.3557 50.9814 60.5426 49.9156C61.8753 49.6907 63.16 50.5658 63.3128 51.871C63.5613 53.173 62.6559 54.4131 61.4188 54.6339C55.4221 55.6616 49.2369 56.7513 43.4704 58.6608C42.2417 59.074 40.869 58.3935 40.4307 57.1391C39.9924 55.8857 40.7006 54.5285 41.9292 54.1144Z" fill="black" stroke="white" stroke-width="1.5"/>
<path fill-rule="evenodd" clip-rule="evenodd" d="M25.4485 44.5198C31.7218 31.893 39.5801 20.1142 45.5876 7.28977C46.1092 6.10486 47.5511 5.58196 48.7408 6.14331C49.9309 6.70558 50.4906 8.11938 49.8779 9.3339C43.8796 22.1866 36.0301 33.9927 29.7661 46.6477C29.1462 47.8404 27.6929 48.3267 26.4951 47.7408C25.3888 47.1261 24.8287 45.7124 25.4485 44.5198Z" fill="black" stroke="white" stroke-width="1.5"/>
<path fill-rule="evenodd" clip-rule="evenodd" d="M11.2484 15.9079C11.2525 21.6788 11.2571 27.4496 11.2613 33.2214C11.328 34.54 10.2307 35.6162 8.88788 35.6198C7.54502 35.6225 6.53197 34.5485 6.46523 33.229C6.46065 27.4486 6.45555 21.6691 6.45102 15.8896C6.48001 14.5663 7.57725 13.4968 8.92046 13.5008C10.168 13.5097 11.2774 14.5855 11.2484 15.9079Z" fill="black" stroke="white" stroke-width="1.5"/>
</svg>
