<svg width="170" height="36" viewBox="0 0 170 36" fill="none" xmlns="http://www.w3.org/2000/svg">
<path d="M55.0032 17.5994C54.5254 18.4556 53.7991 19.1595 52.8053 19.6923C51.8115 20.225 50.5501 20.4914 49.0212 20.4914H45.9059V27.5692H42.1982V9.11362H49.0212C50.4546 9.11362 51.6777 9.36096 52.6907 9.85564C53.7036 10.3503 54.4489 11.0353 54.965 11.8915C55.4619 12.7476 55.7294 13.737 55.7294 14.8215C55.7103 15.8109 55.481 16.7432 55.0032 17.5994ZM51.1426 16.8003C51.6395 16.3246 51.888 15.6777 51.888 14.8405C51.888 13.0521 50.875 12.1388 48.8683 12.1388H45.9251V17.5042H48.8683C49.8812 17.4852 50.6457 17.2569 51.1426 16.8003Z" fill="#01103D"/>
<path d="M62.5714 13.3755C63.3359 12.9379 64.215 12.7096 65.2088 12.7096V16.591H64.2341C63.0683 16.591 62.1891 16.8574 61.5967 17.4091C61.0042 17.9609 60.6984 18.9122 60.6984 20.2631V27.5502H56.9907V12.9189H60.6984L59.9148 15.9631C60.3926 15.2021 61.8069 13.8132 62.5714 13.3755Z" fill="#01103D"/>
<path d="M69.0698 26.8652C67.9422 26.2373 67.0439 25.3621 66.3941 24.2015C65.7443 23.0599 65.4194 21.7281 65.4194 20.244C65.4194 18.741 65.7443 17.4281 66.4132 16.2866C67.0822 15.145 67.9804 14.2507 69.1271 13.6229C70.2738 12.995 71.5543 12.6906 72.9686 12.6906C74.3829 12.6906 75.6634 12.995 76.8101 13.6229C77.9568 14.2507 78.8742 15.126 79.524 16.2866C80.1929 17.4281 80.5178 18.76 80.5178 20.244C80.5178 21.7471 80.1738 23.0599 79.5049 24.2015C78.8168 25.3431 77.8995 26.2373 76.7528 26.8652C75.5869 27.4931 74.3064 27.7975 72.8731 27.7975C71.4779 27.7975 70.1974 27.4931 69.0698 26.8652ZM74.7842 24.0874C75.3767 23.7639 75.8545 23.2692 76.1985 22.6223C76.5616 21.9754 76.7337 21.1763 76.7337 20.244C76.7337 18.8551 76.3705 17.7896 75.6252 17.0286C74.8989 16.2866 74.0007 15.906 72.9304 15.906C71.8601 15.906 70.981 16.2866 70.2547 17.0286C69.5476 17.7706 69.1845 18.8551 69.1845 20.244C69.1845 21.633 69.5285 22.6984 70.2356 23.4595C70.9428 24.2015 71.8219 24.5821 72.8731 24.5821C73.5611 24.5821 74.1918 24.4108 74.7842 24.0874Z" fill="#01103D"/>
<path d="M97.3172 9.11362V27.5692H93.5904V19.7113H85.6589V27.5692H81.9321V9.11362H85.6398V16.7051H93.5904V9.11362H97.3172Z" fill="#01103D"/>
<path d="M109.166 27.5692L105.076 20.3772H103.337V27.5692H99.6294V9.11362H106.586C108.02 9.11362 109.243 9.36096 110.256 9.87467C111.269 10.3694 112.014 11.0543 112.53 11.9105C113.027 12.7667 113.294 13.718 113.294 14.7835C113.294 16.0012 112.931 17.1047 112.224 18.075C111.517 19.0454 110.466 19.7303 109.071 20.0918L113.505 27.5692H109.166ZM103.337 17.5994H106.452C107.465 17.5994 108.211 17.352 108.708 16.8764C109.204 16.4007 109.453 15.7158 109.453 14.8596C109.453 14.0224 109.204 13.3565 108.708 12.8999C108.211 12.4242 107.465 12.1959 106.452 12.1959H103.337V17.5994Z" fill="#01103D"/>
<path d="M126.73 9.11362V12.1008H119.009V16.8383H124.934V19.7684H119.009V27.5692H115.301V9.11362H126.73Z" fill="#01103D"/>
<path d="M131.718 8.0101V27.5692H127.991V8.0101H131.718Z" fill="#01103D"/>
<path d="M136.726 26.8652C135.598 26.2373 134.7 25.3621 134.05 24.2015C133.401 23.0599 133.076 21.7281 133.076 20.244C133.076 18.741 133.401 17.4281 134.07 16.2866C134.738 15.145 135.637 14.2507 136.783 13.6229C137.93 12.995 139.211 12.6906 140.625 12.6906C142.039 12.6906 143.32 12.995 144.466 13.6229C145.613 14.2507 146.53 15.126 147.18 16.2866C147.849 17.4281 148.174 18.76 148.174 20.244C148.174 21.7471 147.83 23.0599 147.161 24.2015C146.473 25.3431 145.556 26.2373 144.409 26.8652C143.243 27.4931 141.963 27.7975 140.529 27.7975C139.134 27.7975 137.854 27.4931 136.726 26.8652ZM142.44 24.0874C143.033 23.7639 143.511 23.2692 143.855 22.6223C144.218 21.9754 144.39 21.1763 144.39 20.244C144.39 18.8551 144.027 17.7896 143.281 17.0286C142.555 16.2866 141.657 15.906 140.587 15.906C139.516 15.906 138.637 16.2866 137.911 17.0286C137.204 17.7706 136.841 18.8551 136.841 20.244C136.841 21.633 137.185 22.6984 137.892 23.4595C138.599 24.2015 139.478 24.5821 140.529 24.5821C141.217 24.5821 141.848 24.4108 142.44 24.0874Z" fill="#01103D"/>
<path d="M169.999 12.9189L165.699 27.5502H161.686L159.01 17.314L156.334 27.5502H152.302L147.982 12.9189H151.747L154.347 24.0684L157.156 12.9189H161.093L163.845 24.0493L166.444 12.9189H169.999Z" fill="#01103D"/>
<path d="M17.9843 0C8.04609 0 0 8.01009 0 17.9038C0 19.2547 0.152895 20.5485 0.420461 21.8042C2.19786 23.821 3.72681 24.3728 4.91175 24.2967C3.97527 22.375 3.44014 20.187 3.44014 17.9038C3.44014 9.8937 9.95728 3.42474 17.9843 3.42474C26.0304 3.42474 32.5284 9.91273 32.5284 17.9038C32.5284 25.9139 26.0112 32.3829 17.9843 32.3829C14.3912 32.3829 11.0849 31.0891 8.543 28.9201C6.42159 29.2435 4.89264 28.7678 3.42102 28.4254C6.68915 32.8966 12.0023 35.8076 17.9843 35.8076C27.9224 35.8076 35.9685 27.7975 35.9685 17.9038C35.9685 8.01009 27.9224 0 17.9843 0Z" fill="url(#paint0_linear_40_32)"/>
<path d="M0.42041 21.7852C0.42041 21.7852 1.28044 27.5501 6.05841 27.7404C6.05841 27.7404 11.1039 28.3493 15.9775 23.1931L23.1826 16.2295V18.7029C23.1826 18.7029 23.2017 27.7975 12.824 29.0723C12.824 29.0723 20.3159 30.7275 24.4058 24.8674C24.4058 24.8674 26.2979 22.2418 26.2979 19.1595V8.99945H19.9145C15.8055 8.99945 11.9449 11.1114 9.86167 14.6503C9.00164 16.0963 8.25627 17.9228 7.75937 20.225C7.75937 20.225 9.34565 18.5697 11.3524 16.8003C14.1618 14.3268 17.8122 12.976 21.5581 12.976L12.2124 21.671C11.2568 22.5652 10.1292 23.2882 8.90608 23.7639C6.66999 24.6201 3.38275 24.9816 0.42041 21.7852Z" fill="url(#paint1_linear_40_32)"/>
<defs>
<linearGradient id="paint0_linear_40_32" x1="0.539489" y1="1.31297" x2="34.8411" y2="34.2374" gradientUnits="userSpaceOnUse">
<stop stop-color="#8B8CF4"/>
<stop offset="0.1075" stop-color="#7878F3"/>
<stop offset="0.2625" stop-color="#6361F2"/>
<stop offset="0.3604" stop-color="#5B59F2"/>
<stop offset="1" stop-color="#5754F2"/>
</linearGradient>
<linearGradient id="paint1_linear_40_32" x1="0.420028" y1="19.1247" x2="26.2873" y2="19.1247" gradientUnits="userSpaceOnUse">
<stop stop-color="#8B8CF4"/>
<stop offset="0.1075" stop-color="#7878F3"/>
<stop offset="0.2625" stop-color="#6361F2"/>
<stop offset="0.3604" stop-color="#5B59F2"/>
<stop offset="1" stop-color="#5754F2"/>
</linearGradient>
</defs>
</svg>
