<svg width="56" height="59" viewBox="0 0 56 59" fill="none" xmlns="http://www.w3.org/2000/svg">
<circle cx="27.7485" cy="29.3877" r="8.59128" stroke="#5B6CFF" stroke-width="1.5"/>
<path d="M3.8699 25.4905C5.22316 26.3408 6.0939 27.7892 6.09389 29.3875C6.09388 30.9856 5.22315 32.4341 3.8699 33.2843C2.94904 33.8629 2.35573 34.3254 1.9336 34.8755C1.00887 36.0807 0.600748 37.6038 0.799022 39.1098C0.947727 40.2393 1.6149 41.3949 2.94925 43.7061C4.28359 46.0172 4.95076 47.1728 5.85461 47.8663C7.05974 48.7911 8.58286 49.1992 10.0889 49.0009C10.7763 48.9104 11.4734 48.6279 12.4347 48.1198C13.8479 47.3729 15.5379 47.3431 16.9222 48.1424C18.3063 48.9416 19.1253 50.42 19.185 52.0172C19.2257 53.1039 19.3295 53.8489 19.5949 54.4895C20.1762 55.8929 21.2912 57.0079 22.6946 57.5892C23.7471 58.0252 25.0815 58.0252 27.7502 58.0252C30.4189 58.0252 31.7532 58.0252 32.8058 57.5892C34.2092 57.0079 35.3242 55.8929 35.9055 54.4895C36.1708 53.8489 36.2747 53.1039 36.3153 52.0172C36.3751 50.42 37.1941 48.9416 38.5783 48.1425C39.9625 47.3433 41.6523 47.3732 43.0654 48.12C44.0268 48.6282 44.724 48.9108 45.4114 49.0013C46.9175 49.1995 48.4406 48.7914 49.6457 47.8667C50.5496 47.1731 51.2167 46.0176 52.5511 43.7064C53.1451 42.6775 53.6069 41.8776 53.9496 41.2071M51.6304 33.2846C50.2771 32.4344 49.4064 30.986 49.4063 29.3879C49.4062 27.7895 50.277 26.3409 51.6303 25.4905C52.5511 24.912 53.1443 24.4496 53.5664 23.8995C54.4911 22.6944 54.8993 21.1712 54.701 19.6652C54.5523 18.5357 53.8851 17.3801 52.5508 15.0689C51.2164 12.7578 50.5492 11.6022 49.6454 10.9087C48.4403 9.98394 46.9171 9.57582 45.4111 9.7741C44.7237 9.8646 44.0266 10.1472 43.0652 10.6553C41.6521 11.4021 39.9622 11.432 38.578 10.6327C37.194 9.83357 36.375 8.35529 36.3153 6.75825C36.2747 5.67143 36.1708 4.92636 35.9055 4.28569C35.3242 2.88229 34.2092 1.76729 32.8058 1.18598C31.7532 0.749997 30.4189 0.749998 27.7502 0.75C25.0815 0.750002 23.7471 0.750003 22.6946 1.18598C21.2912 1.76729 20.1762 2.88229 19.5949 4.28569C19.3295 4.92631 19.2257 5.67131 19.185 6.75799C19.1253 8.35518 18.3062 9.83358 16.922 10.6327C15.5379 11.4319 13.848 11.402 12.4349 10.6552C11.4735 10.147 10.7764 9.86446 10.0889 9.77395C8.58289 9.57568 7.05977 9.9838 5.85464 10.9085C4.95079 11.6021 4.28362 12.7577 2.94927 15.0688C2.35523 16.0977 1.89343 16.8976 1.55073 17.5681" stroke="#5B6CFF" stroke-width="1.5" stroke-linecap="round"/>
</svg>
